<?xml version="1.0" encoding="UTF-8" standalone="no"?>
<!-- Created with Inkscape (http://www.inkscape.org/) -->

<svg
   xmlns:dc="http://purl.org/dc/elements/1.1/"
   xmlns:cc="http://creativecommons.org/ns#"
   xmlns:rdf="http://www.w3.org/1999/02/22-rdf-syntax-ns#"
   xmlns:svg="http://www.w3.org/2000/svg"
   xmlns="http://www.w3.org/2000/svg"
   xmlns:sodipodi="http://sodipodi.sourceforge.net/DTD/sodipodi-0.dtd"
   xmlns:inkscape="http://www.inkscape.org/namespaces/inkscape"
   id="svg2"
   version="1.1"
   inkscape:version="0.91 r13725"
   xml:space="preserve"
   width="238.97629"
   height="77.31884"
   viewBox="0 0 238.97629 77.318836"
   sodipodi:docname="Ifsttar.svg"><metadata
     id="metadata8"><rdf:RDF><cc:Work
         rdf:about=""><dc:format>image/svg+xml</dc:format><dc:type
           rdf:resource="http://purl.org/dc/dcmitype/StillImage" /><dc:title /></cc:Work></rdf:RDF></metadata><defs
     id="defs6" /><sodipodi:namedview
     pagecolor="#ffffff"
     bordercolor="#666666"
     borderopacity="1"
     objecttolerance="10"
     gridtolerance="10"
     guidetolerance="10"
     inkscape:pageopacity="0"
     inkscape:pageshadow="2"
     inkscape:window-width="1920"
     inkscape:window-height="1017"
     id="namedview4"
     showgrid="false"
     fit-margin-left="5"
     fit-margin-bottom="5"
     fit-margin-top="5"
     fit-margin-right="5"
     inkscape:zoom="1.7940585"
     inkscape:cx="29.883087"
     inkscape:cy="55.446078"
     inkscape:window-x="-8"
     inkscape:window-y="-8"
     inkscape:window-maximized="1"
     inkscape:current-layer="g10" /><g
     id="g10"
     inkscape:groupmode="layer"
     inkscape:label="Ifsttar_RA2011"
     transform="matrix(1.25,0,0,-1.25,-469.97172,106.86368)"><g
       id="g4507"><path
         d="m 404.21159,61.403503 c 1.089,-0.524 2.14,-1.083 3.152,-1.691 0.508,-0.301 1.003,-0.617 1.484,-0.947 0.378,-0.266 0.754,-0.536 1.104,-0.832 -0.54,0.018 -1.068,-0.017 -1.596,-0.056 -0.657,-0.053 -1.312,-0.134 -1.963,-0.23 l -0.211,-0.037 c -1.861,1.088 -3.87,2.04 -6.018,2.833 -1.537,0.567 -3.154,1.048 -4.847,1.424 1.402,0.564 2.839,1.035 4.306,1.41 1.598,-0.544 3.132,-1.173 4.589,-1.874 m -2.312,-9.379 c -0.691,-1.184 -1.282,-2.382 -1.76,-3.585 -0.76,-0.346 -1.511,-0.718 -2.25,-1.116 -0.141,-0.076 -0.275,-0.154 -0.41,-0.232 0.287,1.252 0.722,2.521 1.28,3.785 0.804,1.825 1.858,3.636 3.095,5.387 0.26,0.072 0.517,0.139 0.774,0.205 0.96,0.24 1.923,0.441 2.898,0.609 -1.397,-1.624 -2.612,-3.319 -3.627,-5.053 m -4.875,-5.192 c -0.733,-0.428 -1.448,-0.883 -2.135,-1.389 -0.011,0.251 -0.018,0.5 -0.011,0.753 0.026,0.93 0.157,1.895 0.417,2.894 0.479,1.904 1.276,3.842 2.296,5.739 1.172,0.475 2.371,0.89 3.586,1.244 -1.205,-1.778 -2.224,-3.606 -2.983,-5.447 -0.397,-0.963 -0.727,-1.93 -0.968,-2.884 -0.08,-0.305 -0.142,-0.606 -0.202,-0.91 m -2.453,-1.628 c -0.471,-0.359 -0.929,-0.737 -1.366,-1.144 l -0.239,-0.234 c -0.337,0.914 -0.521,1.962 -0.538,3.07 -0.034,1.882 0.389,3.921 1.132,5.955 0.575,0.341 1.163,0.655 1.753,0.951 0.55,0.274 1.107,0.533 1.67,0.773 -0.985,-1.915 -1.736,-3.875 -2.161,-5.788 -0.26,-1.239 -0.346,-2.456 -0.251,-3.583 m -2.948,-2.931 c -0.501,0.552 -0.917,1.247 -1.219,2.038 -0.646,1.681 -0.779,3.761 -0.473,5.904 0.953,0.867 1.998,1.633 3.096,2.313 -0.695,-2.048 -1.047,-4.102 -0.934,-5.974 0.058,-1.07 0.283,-2.077 0.654,-2.944 -0.406,-0.417 -0.785,-0.865 -1.124,-1.337 m -0.279,-0.406 c -0.242,-0.371 -0.46,-0.769 -0.638,-1.182 -0.431,0.244 -0.847,0.538 -1.231,0.904 -0.642,0.611 -1.194,1.398 -1.611,2.325 -0.394,0.865 -0.661,1.848 -0.808,2.892 0.552,0.903 1.215,1.741 1.946,2.51 0.164,0.171 0.334,0.337 0.507,0.502 -0.239,-2.154 -0.023,-4.226 0.71,-5.86 0.328,-0.737 0.759,-1.376 1.266,-1.883 l -0.141,-0.208 m -1.105,-2.663 c -0.037,-0.165 -0.061,-0.333 -0.079,-0.503 -0.147,0.047 -0.297,0.099 -0.445,0.154 -0.841,0.332 -1.665,0.809 -2.417,1.472 -0.713,0.622 -1.352,1.412 -1.874,2.34 0.226,1.239 0.669,2.433 1.275,3.537 l 0.081,0.137 c 0.187,-1.042 0.502,-2.01 0.935,-2.854 0.462,-0.901 1.053,-1.653 1.729,-2.225 0.371,-0.319 0.764,-0.579 1.174,-0.79 -0.17,-0.407 -0.297,-0.832 -0.379,-1.268 m 0.999,-5.207 c -0.272,-0.05 -0.55,-0.094 -0.834,-0.121 -0.95,-0.086 -1.974,-0.013 -3.012,0.267 -0.218,0.306 -0.418,0.623 -0.598,0.952 -0.471,0.849 -0.851,1.747 -1.122,2.678 0.89,-0.61 1.816,-1.051 2.746,-1.367 0.242,-0.081 0.488,-0.157 0.731,-0.222 0.231,-0.044 0.467,-0.077 0.696,-0.1 0.177,-0.016 0.354,-0.024 0.531,-0.026 0.199,-0.721 0.497,-1.41 0.862,-2.061 m 0.181,-0.312 c 0.32,-0.522 0.726,-0.991 1.186,-1.392 -0.793,-0.328 -1.648,-0.575 -2.576,-0.708 -0.258,0.177 -0.511,0.365 -0.753,0.558 -0.608,0.487 -1.154,1.048 -1.631,1.66 1.314,-0.293 2.574,-0.27 3.718,-0.023 l 0.056,-0.095 m 2.034,-2.013 c 0.45,-0.274 0.928,-0.492 1.418,-0.671 -0.567,-0.333 -1.179,-0.627 -1.844,-0.865 -0.124,0.04 -0.249,0.08 -0.373,0.125 -0.808,0.293 -1.588,0.669 -2.316,1.127 0.887,0.155 1.707,0.408 2.47,0.739 0.208,-0.165 0.422,-0.317 0.645,-0.455 m 2.671,-1.012 c 0.448,-0.09 0.904,-0.145 1.359,-0.182 -0.399,-0.342 -0.831,-0.667 -1.29,-0.973 -0.941,0.081 -1.873,0.246 -2.779,0.512 0.63,0.249 1.209,0.551 1.745,0.89 0.319,-0.103 0.64,-0.181 0.965,-0.247 m 3.758,-0.128 c -0.278,-0.34 -0.57,-0.68 -0.883,-1.009 -0.811,-0.077 -1.632,-0.09 -2.446,-0.042 0.444,0.306 0.856,0.639 1.247,0.984 0.694,-0.034 1.389,-0.01 2.082,0.067 m 1.89,0.321 c 0.144,0.029 0.285,0.071 0.426,0.106 -0.225,-0.343 -0.463,-0.682 -0.722,-1.02 -0.372,-0.089 -0.75,-0.167 -1.128,-0.234 -0.35,-0.062 -0.698,-0.111 -1.046,-0.147 0.302,0.328 0.585,0.665 0.854,1.006 0.546,0.071 1.087,0.166 1.616,0.289 m 2.242,0.682 c -0.166,-0.33 -0.345,-0.666 -0.534,-0.995 -0.559,-0.201 -1.127,-0.377 -1.694,-0.526 0.243,0.332 0.472,0.675 0.688,1.017 0.523,0.142 1.036,0.314 1.54,0.504 m 1.621,0.706 c -0.139,-0.335 -0.284,-0.669 -0.442,-1.001 -0.479,-0.221 -0.965,-0.425 -1.463,-0.611 0.185,0.332 0.36,0.664 0.522,0.998 0.469,0.186 0.93,0.39 1.383,0.614 m 0.746,-1.372 c -0.478,-0.242 -0.962,-0.473 -1.452,-0.69 -0.392,0.1 -0.774,0.209 -1.153,0.332 0.491,0.183 0.971,0.389 1.447,0.61 0.378,-0.096 0.767,-0.179 1.158,-0.252 m 0.332,1.011 c 0.381,-0.074 0.772,-0.137 1.164,-0.193 -0.412,-0.237 -0.824,-0.466 -1.242,-0.686 -0.391,0.071 -0.779,0.148 -1.158,0.238 0.419,0.201 0.834,0.413 1.236,0.641 m -3.774,-2.481 c -0.39,0.145 -0.766,0.306 -1.134,0.477 0.576,0.151 1.15,0.333 1.709,0.535 0.378,-0.125 0.763,-0.24 1.155,-0.345 -0.569,-0.244 -1.147,-0.466 -1.73,-0.667 m -2.365,-0.671 c -0.427,0.213 -0.846,0.436 -1.24,0.676 0.347,0.041 0.695,0.091 1.037,0.155 0.38,0.067 0.759,0.147 1.133,0.241 0.367,-0.181 0.743,-0.345 1.135,-0.499 -0.681,-0.222 -1.368,-0.418 -2.065,-0.573 m -1.213,-0.233 c -0.521,-0.087 -1.049,-0.149 -1.572,-0.187 -0.424,0.317 -0.824,0.651 -1.194,0.998 0.805,-0.04 1.612,-0.016 2.415,0.062 0.398,-0.25 0.813,-0.486 1.246,-0.707 -0.299,-0.06 -0.596,-0.117 -0.895,-0.166 m -4.759,-0.162 c -0.439,0.476 -0.833,0.969 -1.171,1.483 0.919,-0.257 1.866,-0.417 2.817,-0.486 0.372,-0.366 0.772,-0.715 1.195,-1.05 -0.949,-0.057 -1.9,-0.041 -2.841,0.053 m -3.132,0.616 c -0.481,0.725 -0.878,1.469 -1.178,2.222 0.725,-0.442 1.495,-0.809 2.296,-1.09 0.159,-0.055 0.318,-0.108 0.477,-0.157 0.33,-0.535 0.718,-1.05 1.151,-1.547 -0.928,0.114 -1.85,0.302 -2.746,0.572 m -1.714,0.622 c -0.608,0.259 -1.202,0.564 -1.776,0.901 -0.32,1.068 -0.488,2.131 -0.472,3.143 0.48,-0.605 1.029,-1.157 1.633,-1.637 0.254,-0.208 0.523,-0.397 0.795,-0.577 0.279,-0.789 0.669,-1.571 1.143,-2.324 -0.448,0.145 -0.889,0.307 -1.323,0.494 m -5.243,3.665 0.004,0.268 c 0.025,0.315 0.06,0.625 0.101,0.932 0.153,1.136 0.436,2.217 0.84,3.192 0.273,-0.924 0.661,-1.812 1.129,-2.647 0.197,-0.355 0.418,-0.696 0.657,-1.021 -0.057,-1.044 0.071,-2.15 0.374,-3.271 -1.14,0.712 -2.189,1.57 -3.105,2.547 m -0.271,0.758 c -0.013,-0.139 -0.025,-0.281 -0.038,-0.421 -0.631,0.712 -1.197,1.488 -1.679,2.313 -0.183,0.313 -0.354,0.63 -0.516,0.954 0.275,0.942 0.626,1.835 1.065,2.639 0.554,1.027 1.233,1.918 1.989,2.651 -0.144,-1.151 -0.094,-2.325 0.132,-3.46 0.041,-0.197 0.083,-0.389 0.134,-0.584 -0.438,-0.958 -0.762,-2.029 -0.955,-3.163 -0.05,-0.304 -0.096,-0.614 -0.132,-0.929 m 6.065,2.332 0.005,-0.021 c -0.209,-0.005 -0.424,0.017 -0.638,0.044 -0.22,0.022 -0.472,0.105 -0.711,0.172 -0.24,0.072 -0.481,0.15 -0.722,0.242 -0.917,0.34 -1.826,0.816 -2.685,1.459 -0.039,0.166 -0.075,0.331 -0.109,0.499 -0.221,1.134 -0.257,2.305 -0.103,3.45 0.567,-0.904 1.243,-1.663 1.986,-2.255 0.784,-0.625 1.629,-1.068 2.49,-1.37 0.103,-0.038 0.208,-0.067 0.312,-0.1 -0.054,-0.712 0.005,-1.428 0.175,-2.12 m -9.594,4.069 c -0.069,0.304 -0.13,0.607 -0.179,0.916 0.12,0.196 0.244,0.391 0.37,0.579 0.803,1.169 1.74,2.142 2.736,2.906 0.916,0.707 1.877,1.245 2.847,1.637 l -0.049,-0.085 c -0.626,-1.155 -1.081,-2.409 -1.3,-3.708 -0.789,-0.691 -1.51,-1.546 -2.115,-2.551 -0.502,-0.835 -0.917,-1.774 -1.239,-2.777 -0.457,0.993 -0.821,2.02 -1.071,3.083 m -0.336,4.833 c 0.031,0.342 0.076,0.681 0.128,1.017 0.666,0.596 1.354,1.115 2.056,1.552 2.232,1.38 4.528,2.014 6.693,2.229 -0.165,-0.166 -0.33,-0.324 -0.488,-0.491 -0.75,-0.8 -1.432,-1.678 -2.004,-2.621 -0.981,-0.355 -1.964,-0.844 -2.908,-1.503 -1.032,-0.717 -2.015,-1.634 -2.875,-2.759 -0.187,-0.242 -0.361,-0.496 -0.533,-0.757 -0.145,1.107 -0.17,2.225 -0.069,3.333 m 1.776,5.948 c 1.267,0.608 2.532,1.03 3.763,1.313 2.432,0.557 4.749,0.585 6.901,0.32 -1.112,-0.701 -2.166,-1.485 -3.134,-2.375 -2.167,-0.144 -4.478,-0.686 -6.755,-1.949 -0.782,-0.431 -1.555,-0.962 -2.302,-1.578 0.306,1.483 0.826,2.921 1.527,4.269 m 1.897,2.904 c 0.406,0.513 0.841,0.999 1.295,1.467 1.655,0.325 3.263,0.443 4.79,0.407 2.371,-0.079 4.591,-0.466 6.674,-1.045 -0.561,-0.245 -1.114,-0.504 -1.661,-0.78 -0.605,-0.309 -1.207,-0.64 -1.797,-0.99 -2.138,0.314 -4.449,0.365 -6.885,-0.096 -1.287,-0.247 -2.618,-0.635 -3.951,-1.215 0.451,0.788 0.966,1.544 1.535,2.252 m 3.466,3.405 c 0.639,0.494 1.313,0.953 1.995,1.395 l 0.212,0.13 c 0.409,-0.014 0.821,-0.032 1.222,-0.064 1.282,-0.099 2.515,-0.279 3.714,-0.518 2.28,-0.463 4.402,-1.148 6.395,-1.977 -1.231,-0.365 -2.442,-0.79 -3.625,-1.279 -2.072,0.618 -4.282,1.057 -6.641,1.198 -1.227,0.081 -2.54,0.05 -3.887,-0.107 -0.319,-0.036 -0.641,-0.085 -0.965,-0.136 0.503,0.478 1.03,0.929 1.58,1.358 m 4.093,2.639 c 0.94,0.517 1.907,0.98 2.889,1.403 1.703,-0.335 3.324,-0.786 4.872,-1.321 2.163,-0.753 4.189,-1.667 6.069,-2.713 -0.976,-0.173 -1.949,-0.384 -2.907,-0.632 -0.267,-0.068 -0.534,-0.139 -0.8,-0.213 -1.977,0.864 -4.084,1.585 -6.34,2.101 -1.57,0.352 -3.219,0.599 -4.944,0.708 0.384,0.23 0.77,0.453 1.161,0.667 m 17.163,2.884 c -0.591,0.333 -1.163,0.648 -1.739,0.949 -0.227,0.12 -0.456,0.233 -0.682,0.344 1.35,0.067 2.702,0.052 4.039,-0.082 l 0.068,0.668 c -1.662,0.154 -3.32,0.132 -4.97,-0.003 -1.65,-0.138 -3.289,-0.395 -4.899,-0.767 -3.224,-0.739 -6.341,-1.934 -9.226,-3.545 -0.719,-0.402 -1.429,-0.827 -2.119,-1.282 -0.689,-0.45 -1.369,-0.924 -2.018,-1.439 -1.304,-1.027 -2.49,-2.196 -3.516,-3.501 -2.047,-2.6 -3.415,-5.778 -3.681,-9.092 -0.136,-1.652 -0.006,-3.327 0.386,-4.936 0.389,-1.61 1.037,-3.152 1.879,-4.573 1.692,-2.848 4.352,-5.079 7.39,-6.35 1.521,-0.64 3.14,-1.038 4.777,-1.203 1.641,-0.159 3.299,-0.086 4.918,0.192 3.123,0.533 6.078,1.791 8.769,3.428 0.109,0.065 0.218,0.134 0.325,0.196 l -0.014,0.023 c -0.114,-0.07 -0.225,-0.134 -0.336,-0.201 l -0.002,-0.002 c -0.395,0.049 -0.788,0.11 -1.176,0.18 0.162,0.094 0.316,0.189 0.475,0.28 l 0.226,0.139 -0.022,0.034 -0.057,0.039 -0.249,-0.145 c -0.129,-0.075 -0.258,-0.152 -0.387,-0.228 0.052,0.131 0.096,0.261 0.147,0.39 0.034,0.09 0.068,0.176 0.103,0.267 l -0.148,0.099 c -0.035,-0.09 -0.068,-0.178 -0.099,-0.268 -0.08,-0.21 -0.161,-0.417 -0.246,-0.625 -0.412,-0.226 -0.829,-0.44 -1.252,-0.641 0.154,0.334 0.301,0.671 0.429,1.006 0.275,0.142 0.542,0.289 0.807,0.443 0.11,0.064 0.22,0.128 0.33,0.195 l -0.018,0.023 c -0.109,-0.069 -0.225,-0.133 -0.341,-0.196 -1.526,-0.862 -3.181,-1.495 -4.892,-1.868 -1.834,-0.396 -3.756,-0.502 -5.591,-0.114 -0.909,0.195 -1.799,0.526 -2.584,1.023 -0.785,0.494 -1.455,1.167 -1.925,1.959 -0.468,0.805 -0.845,1.67 -1.045,2.571 -0.202,0.902 -0.219,1.843 -0.028,2.741 0.189,0.902 0.578,1.753 1.09,2.52 0.513,0.77 1.141,1.461 1.83,2.087 0.7,0.636 1.457,1.207 2.249,1.729 0.422,0.279 0.856,0.544 1.293,0.799 0.36,0.206 0.724,0.408 1.087,0.598 l 0.232,0.12 c 0.685,0.35 1.384,0.68 2.093,0.991 0.933,0.407 1.879,0.785 2.837,1.131 1.267,0.46 2.559,0.874 3.856,1.235 0.268,0.074 0.535,0.141 0.804,0.213 0.146,0.036 0.296,0.078 0.443,0.116 0.094,0.019 0.182,0.047 0.274,0.068 l -0.077,0.323 -0.077,0.332 c -1.385,-0.355 -2.739,-0.774 -4.077,-1.238 0.55,0.894 1.155,1.779 1.809,2.644 0.593,0.782 1.229,1.55 1.907,2.289 0.336,0.37 0.684,0.735 1.043,1.087 0.203,0.196 0.405,0.387 0.615,0.572 0.042,0.247 0.086,0.492 0.127,0.742 -0.341,-0.275 -0.661,-0.567 -0.973,-0.868 -0.389,-0.378 -0.765,-0.77 -1.13,-1.17 -0.726,-0.797 -1.408,-1.623 -2.041,-2.471 -0.747,-1 -1.429,-2.029 -2.032,-3.074 -0.228,-0.082 -0.455,-0.162 -0.679,-0.245 -0.798,-0.301 -1.588,-0.623 -2.372,-0.968 0.51,1.18 1.121,2.358 1.826,3.514 1.053,1.714 2.292,3.388 3.717,4.98 l 0.201,0.029 c 0.643,0.095 1.288,0.167 1.933,0.219 0.515,0.038 1.042,0.067 1.546,0.048 0.021,0.134 0.043,0.273 0.065,0.409 l 0.006,-0.003 c 0.033,0.191 0.061,0.388 0.088,0.581 -0.328,0.272 -0.683,0.519 -1.03,0.76 -0.461,0.315 -0.932,0.614 -1.412,0.902 -0.959,0.577 -1.951,1.115 -2.974,1.618 -1.315,0.644 -2.688,1.228 -4.111,1.746 l 0.155,0.039 c 1.49,0.33 3.008,0.559 4.53,0.685 0.447,-0.212 0.89,-0.43 1.327,-0.658 0.655,-0.341 1.306,-0.699 1.962,-1.075 l 1.003,-0.589 c 0.276,-0.165 0.583,-0.337 0.868,-0.521 0.016,0.225 0.027,0.45 0.034,0.672 -0.252,0.155 -0.517,0.297 -0.764,0.438 l -0.907,0.516 z"
         style="fill:#4dbd38;fill-opacity:1;fill-rule:nonzero;stroke:none"
         id="path180"
         inkscape:connector-curvature="0" /><path
         inkscape:connector-curvature="0"
         id="path182"
         style="fill:#17559e;fill-opacity:1;fill-rule:nonzero;stroke:none"
         d="m 450.144,47.325 2.62,0 0,15.811 -2.62,0 0,-15.811 z" /><path
         d="m 458.0477,47.323303 2.623,0 0,6.323 10.986,0 0,2.359 -10.986,0 0,4.771 12.607,0 0,2.361 -15.23,0 0,-15.814 z"
         style="fill:#17559e;fill-opacity:1;fill-rule:nonzero;stroke:none"
         id="path186"
         inkscape:connector-curvature="0" /><path
         d="m 525.3394,63.135605 -30.68,0 0,-2.359 7.558,0 0,-13.453 2.619,0 0,13.453 10.326,0 0,-13.453 2.621,0 0,13.453 7.556,0 0,2.359 z"
         style="fill:#17559e;fill-opacity:1;fill-rule:nonzero;stroke:none"
         id="path190"
         inkscape:connector-curvature="0" /><path
         d="m 528.9075,53.221603 4.074,7.658 4.031,-7.658 -8.105,0 z m 2.4,9.914 -8.361,-15.812 2.865,0 1.821,3.535 10.654,0 1.822,-3.535 2.861,0 -8.363,15.812 -3.299,0 z"
         style="fill:#17559e;fill-opacity:1;fill-rule:nonzero;stroke:none"
         id="path194"
         inkscape:connector-curvature="0" /><path
         d="m 547.8464,55.709396 0,5.067 9.217,0 c 2.186,0 3.279,-0.873 3.279,-2.622 0,-1.629 -1.016,-2.445 -3.039,-2.445 l -9.457,0 z m 11.075,-2.224 c 3.625,0.721 4.104,3.331 4.104,4.669 0,1.532 -0.77,4.981 -5.328,4.981 l -12.471,0 0,-15.812 2.62,0 0,6.029 7.984,0 4.277,-6.029 3.051,0 -4.237,6.162 z"
         style="fill:#17559e;fill-opacity:1;fill-rule:nonzero;stroke:none"
         id="path206"
         inkscape:connector-curvature="0" /><path
         d="m 484.8,56.768601 c -3.884,0.227 -6.736,0.286 -6.736,2.183 0,1.783 2.671,2.294 5.595,2.294 3.217,0 4.992,-0.31 7.222,-0.753 l 0.444,2.201 c -1.306,0.311 -4.322,0.871 -7.467,0.871 -7.475,0 -8.57,-3.174 -8.57,-4.732 0,-1.645 0.608,-4.023 7.316,-4.378 4.198,-0.227 7.338,-0.361 7.338,-2.414 0,-0.86 -0.443,-2.722 -5.982,-2.722 -4.282,0 -6.465,0.641 -8.205,1.092 l -0.314,-2.365 c 2.823,-0.919 6.52,-1.094 8.497,-1.094 7.978,0 8.846,3.589 8.846,5.263 0,2.805 -2.247,4.173 -7.984,4.554"
         style="fill:#17559e;fill-opacity:1;fill-rule:nonzero;stroke:none"
         id="path210"
         inkscape:connector-curvature="0" /><path
         d="m 436.2663,44.009903 c 0.188,0.062 0.314,0.144 0.399,0.231 0.006,-0.189 0.012,-0.372 0.012,-0.559 -0.092,0.125 -0.236,0.233 -0.411,0.328 m 0.356,-1.724 c -0.122,0.162 -0.312,0.308 -0.543,0.439 0.274,0.047 0.468,0.137 0.588,0.266 -0.01,-0.235 -0.022,-0.471 -0.045,-0.705 m -0.284,-1.944 -0.006,0.019 c -0.095,0.238 -0.277,0.471 -0.544,0.697 0.34,0.006 0.563,0.082 0.715,0.183 -0.047,-0.3 -0.104,-0.603 -0.165,-0.899 m -0.367,-0.681 c -0.132,-0.275 -0.372,-0.41 -0.737,-0.41 -0.231,0 -0.512,0.057 -0.826,0.162 -0.616,0.603 -1.277,1.055 -1.403,1.138 l -0.121,0.084 c -0.587,0.392 -1.461,0.974 -2.235,1.28 -0.077,0.113 -0.127,0.217 -0.146,0.311 -0.02,0.108 0.015,0.163 0.041,0.199 0.073,0.093 0.221,0.141 0.441,0.141 0.138,0 0.3,-0.021 0.473,-0.054 0.517,-0.361 1.348,-0.666 2.111,-0.945 l 0.213,-0.077 c 0.463,-0.172 0.907,-0.296 1.3,-0.369 0.585,-0.356 0.825,-0.666 0.914,-0.894 0.077,-0.19 0.069,-0.377 -0.025,-0.566 m -0.444,-1.975 c -0.081,0.422 -0.339,0.847 -0.666,1.241 0.13,-0.021 0.257,-0.036 0.373,-0.036 0.334,0 0.603,0.093 0.806,0.272 -0.147,-0.499 -0.319,-0.996 -0.513,-1.477 m -4.002,3.371 c 0.433,-0.256 0.849,-0.531 1.154,-0.736 l 0.117,-0.079 c 0.122,-0.082 0.255,-0.175 0.394,-0.28 -0.118,0.069 -0.243,0.139 -0.368,0.213 -0.448,0.265 -0.906,0.574 -1.297,0.882 m 3.463,-4.121 c -0.183,-0.223 -0.407,-0.333 -0.691,-0.333 -0.309,0 -0.645,0.126 -0.978,0.315 -0.479,0.792 -1.089,1.536 -1.48,1.937 l -0.033,0.036 c -0.744,0.758 -1.487,1.482 -2.139,1.974 -0.166,0.308 -0.263,0.558 -0.25,0.72 l 0.031,0.077 c 0.075,0.058 0.181,0.088 0.315,0.088 0.196,0 0.426,-0.056 0.679,-0.152 0.563,-0.725 1.77,-1.477 2.196,-1.732 0.58,-0.347 1.1,-0.599 1.554,-0.762 0.491,-0.488 0.898,-1.031 0.97,-1.513 0.037,-0.252 -0.018,-0.468 -0.174,-0.655 m -0.274,-0.907 c -0.212,-0.371 -0.438,-0.736 -0.679,-1.091 0.007,0.421 -0.16,0.919 -0.41,1.426 0.227,-0.083 0.455,-0.135 0.672,-0.135 0.226,0 0.43,0.053 0.61,0.157 -0.064,-0.121 -0.127,-0.237 -0.193,-0.357 m -4.226,3.623 c 0.412,-0.39 0.785,-0.773 1.042,-1.033 l 0.031,-0.032 c 0.243,-0.25 0.552,-0.613 0.857,-1.027 -0.421,0.358 -0.772,0.728 -0.939,0.911 -0.345,0.379 -0.686,0.785 -0.991,1.181 m 2.954,-5.2 c -0.153,-0.135 -0.329,-0.2 -0.534,-0.2 -0.428,0 -0.942,0.289 -1.435,0.696 -0.301,0.751 -0.702,1.511 -1.09,2.143 -0.642,1.039 -1.429,2.193 -2.176,2.977 -0.102,0.351 -0.142,0.64 -0.1,0.839 0.031,0.122 0.083,0.157 0.1,0.165 l 0.137,0.035 c 0.265,0 0.648,-0.216 1.063,-0.527 0.571,-0.995 1.63,-2.181 1.792,-2.358 0.352,-0.385 1.054,-1.1 1.819,-1.56 0.378,-0.63 0.65,-1.269 0.628,-1.736 -0.009,-0.211 -0.073,-0.365 -0.204,-0.474 m -1.467,-1.989 c 0.065,0.517 -0.051,1.158 -0.264,1.833 0.396,-0.257 0.807,-0.427 1.197,-0.427 0.137,0 0.265,0.024 0.384,0.062 -0.408,-0.515 -0.846,-1.007 -1.317,-1.468 m -3.3,6.428 c 0.426,-0.558 0.889,-1.23 1.368,-2.01 0.236,-0.381 0.465,-0.788 0.668,-1.205 -0.329,0.363 -0.624,0.736 -0.83,1.061 -0.438,0.681 -0.873,1.451 -1.206,2.154 m 2.865,-6.568 c -0.063,-0.246 -0.191,-0.416 -0.388,-0.523 -0.214,-0.111 -0.441,-0.17 -0.677,-0.17 -0.639,0 -1.32,0.424 -1.915,1.122 -0.118,0.819 -0.347,1.755 -0.694,2.827 -0.592,1.827 -1.075,3.175 -1.548,4.071 -0.008,0.556 0.101,0.875 0.335,0.945 l 0.087,0.01 c 0.27,0 0.664,-0.27 1.138,-0.767 0.427,-1.343 1.516,-3.058 1.676,-3.307 0.25,-0.389 0.857,-1.184 1.58,-1.805 0.368,-0.939 0.564,-1.827 0.406,-2.403 m -3.333,-2.575 c 0.363,0.543 0.507,1.329 0.428,2.363 0.584,-0.553 1.226,-0.88 1.84,-0.88 l 0.09,0.007 c -0.738,-0.568 -1.526,-1.066 -2.358,-1.49 m -1.737,8.578 c 0.33,-0.82 0.66,-1.812 1.005,-2.875 0.2,-0.619 0.388,-1.273 0.526,-1.917 -0.324,0.534 -0.6,1.156 -0.795,1.832 -0.35,1.188 -0.592,2.175 -0.736,2.96 m 0.691,-8.913 c -0.151,-0.056 -0.298,-0.085 -0.443,-0.085 -0.676,0 -1.296,0.636 -1.763,1.704 0.169,1.022 0.171,2.287 0.003,3.787 -0.275,2.445 -0.509,4.003 -0.794,4.968 0.072,0.278 0.164,0.493 0.287,0.629 0.106,0.11 0.225,0.162 0.382,0.162 0.376,0 0.731,-0.395 1.091,-1.058 0.03,-1.087 0.427,-2.648 0.899,-4.264 0.296,-1.024 0.777,-1.938 1.343,-2.633 0.209,-1.511 0.036,-2.821 -1.005,-3.21 m -3.78,-1.186 c 0.224,0.133 0.446,0.307 0.652,0.551 0.344,0.404 0.605,0.936 0.782,1.589 0.427,-0.778 0.96,-1.267 1.554,-1.406 -0.971,-0.341 -1.971,-0.585 -2.988,-0.734 m -2.385,0.667 c -0.193,0.236 -0.379,0.574 -0.513,1.05 0.519,0.975 0.981,2.431 1.246,4.607 0.322,2.639 0.396,4.324 0.327,5.411 0.28,0.568 0.553,0.839 0.833,0.839 l 0.042,-10e-4 c 0.321,-0.025 0.573,-0.324 0.802,-1.056 -0.208,-0.982 -0.168,-2.572 -0.013,-4.901 0.096,-1.542 0.38,-2.861 0.799,-3.862 -0.151,-0.827 -0.419,-1.472 -0.808,-1.927 -0.396,-0.464 -0.904,-0.714 -1.512,-0.742 -0.443,-0.019 -0.882,0.188 -1.203,0.582 m -2.253,-0.716 c 0.443,0.176 0.966,0.545 1.454,1.287 0.138,-0.36 0.304,-0.633 0.472,-0.839 0.207,-0.255 0.455,-0.448 0.73,-0.571 -0.888,-0.025 -1.776,0.015 -2.656,0.123 m 2.896,10.736 c -0.013,-1.003 -0.106,-2.388 -0.341,-4.309 -0.221,-1.794 -0.566,-3.068 -0.957,-3.974 -0.136,0.959 -0.1,2.312 0.289,4.232 0.36,1.757 0.689,3.093 1.009,4.051 m -3.656,-10.45 -0.265,0.028 c -0.375,0.065 -0.709,0.332 -0.944,0.745 -0.134,0.239 -0.272,0.602 -0.345,1.118 0.978,1.182 1.737,2.981 2.275,4.592 0.685,2.044 1.338,4.387 1.381,5.983 0.403,0.454 0.696,0.571 0.894,0.571 l 0.155,-0.025 c 0.15,-0.053 0.39,-0.321 0.479,-1.443 -0.423,-0.918 -0.867,-2.478 -1.397,-5.083 -0.48,-2.357 -0.434,-3.914 -0.183,-4.946 -0.754,-1.327 -1.592,-1.54 -2.05,-1.54 m -3.278,0.643 c 0.486,0.13 0.942,0.425 1.36,0.84 0.085,-0.405 0.207,-0.71 0.326,-0.924 0.111,-0.191 0.244,-0.36 0.389,-0.501 -0.703,0.159 -1.393,0.356 -2.075,0.585 m 4.877,11.15 c -0.157,-1.273 -0.6,-3.057 -1.303,-5.169 -0.577,-1.716 -1.222,-3.074 -1.894,-4.029 -0.005,1.032 0.236,2.498 1.021,4.563 0.892,2.344 1.61,3.77 2.176,4.635 m -6.067,-10.641 c -0.319,0.128 -0.536,0.367 -0.667,0.73 -0.162,0.449 -0.164,1.037 -0.083,1.681 1.376,1.256 2.552,3.199 2.992,4.082 0.329,0.665 1.495,3.311 1.934,5.325 0.556,0.571 1.059,0.931 1.415,0.931 l 0.149,-0.028 c 0.274,-0.119 0.402,-0.558 0.389,-1.262 -0.787,-0.954 -1.663,-2.712 -2.646,-5.296 -0.939,-2.463 -1.122,-4.132 -1.022,-5.244 -0.599,-0.686 -1.207,-1.054 -1.81,-1.054 -0.218,0 -0.434,0.048 -0.651,0.135 m -2.207,0.969 c -0.193,0.097 -0.382,0.206 -0.572,0.306 0.512,0.073 1.037,0.338 1.539,0.723 -0.032,-0.53 0.005,-1.016 0.151,-1.42 l 0.086,-0.201 c -0.405,0.188 -0.806,0.388 -1.204,0.592 m 5.718,10.1 c -0.405,-1.427 -1.065,-3.133 -1.681,-4.369 -0.543,-1.088 -1.453,-2.457 -2.427,-3.489 0.345,1.502 1.048,3.124 1.518,3.989 0.68,1.243 1.659,2.744 2.59,3.869 m -7.191,-9.186 c -0.312,0.183 -0.51,0.461 -0.592,0.856 -0.08,0.374 -0.04,0.83 0.072,1.329 l 0.059,0.033 c 1.148,0.752 2.406,2.121 3.634,3.969 1.102,1.66 1.98,3.334 2.467,4.725 l 0.014,0.027 c 0.686,0.568 1.291,0.945 1.653,0.945 l 0.117,-0.025 c 0.239,-0.161 0.205,-0.828 0.009,-1.723 -1.313,-1.381 -2.684,-3.607 -3.226,-4.603 -0.446,-0.818 -1.396,-2.914 -1.69,-4.749 -0.649,-0.574 -1.308,-0.95 -1.89,-0.95 -0.223,0 -0.431,0.054 -0.627,0.166 m 4.872,10.254 c -0.497,-1.169 -1.221,-2.491 -2.093,-3.804 -1.047,-1.569 -2.103,-2.782 -3.086,-3.536 0.497,1.446 1.47,3.072 2.248,4.125 0.665,0.893 1.826,2.189 2.931,3.215 m -8.037,-8.022 c -0.508,0.393 -0.591,1.225 -0.253,2.288 1.5,0.861 3.086,2.359 4.033,3.539 1.161,1.446 2.301,3.16 2.914,4.569 0.913,0.563 1.411,0.696 1.668,0.696 0.107,0 0.192,-0.023 0.246,-0.067 0.147,-0.113 0.306,-0.537 -0.213,-2.071 -1.423,-1.192 -3.004,-2.987 -3.662,-3.873 -0.786,-1.059 -2.027,-3.076 -2.487,-4.817 -0.92,-0.546 -1.751,-0.651 -2.246,-0.264 m 0.604,-0.704 0.144,-0.005 c 0.416,0 0.881,0.124 1.369,0.364 -0.061,-0.406 -0.067,-0.789 0,-1.13 0.025,-0.098 0.054,-0.193 0.086,-0.286 -0.541,0.339 -1.074,0.691 -1.599,1.057 m 5.279,10.543 c -0.582,-1.111 -1.446,-2.418 -2.483,-3.704 -0.904,-1.128 -2.168,-2.303 -3.36,-3.092 0.504,1.112 1.39,2.392 2.594,3.746 1.087,1.224 2.218,2.285 3.249,3.05 m -8.185,-7.746 c -0.292,0 -0.517,0.079 -0.686,0.244 -0.195,0.184 -0.293,0.435 -0.296,0.771 -0.006,0.466 0.173,1.043 0.475,1.668 1.369,0.695 2.869,1.923 3.984,3.025 1.133,1.123 2.538,2.867 3.331,4.321 0.671,0.342 1.256,0.544 1.672,0.544 0.158,0 0.279,-0.03 0.354,-0.091 0.074,-0.059 0.119,-0.16 0.136,-0.308 0.039,-0.363 -0.099,-0.904 -0.374,-1.56 l -0.051,-0.031 c -1.22,-0.796 -2.626,-2.065 -3.966,-3.57 -1.455,-1.64 -2.466,-3.187 -2.921,-4.475 -0.616,-0.34 -1.189,-0.538 -1.658,-0.538 m -0.026,-0.485 0.026,-0.001 c 0.447,0 0.949,0.144 1.472,0.384 -0.142,-0.644 -0.131,-1.207 0.034,-1.652 -0.521,0.407 -1.033,0.831 -1.532,1.269 m -1.431,1.338 c -0.422,0.412 -0.837,0.836 -1.235,1.272 0.087,-0.013 0.176,-0.024 0.27,-0.024 0.38,0 0.805,0.108 1.254,0.281 -0.197,-0.499 -0.307,-0.967 -0.302,-1.374 l 0.013,-0.155 m 7.386,8.674 c -0.746,-1.159 -1.8,-2.468 -2.807,-3.463 -1.073,-1.059 -2.178,-1.94 -3.169,-2.551 0.703,1.16 1.712,2.386 2.683,3.364 1.032,1.039 2.217,1.976 3.293,2.65 m -9.083,-6.613 c -0.393,0.52 -0.285,1.344 0.241,2.326 1.678,0.723 3.456,2.203 4.089,2.756 1.701,1.482 2.909,2.779 3.593,3.838 0.613,0.265 1.164,0.424 1.58,0.424 0.206,0 0.361,-0.043 0.461,-0.124 0.026,-0.021 0.103,-0.087 0.114,-0.285 0.016,-0.347 -0.17,-0.859 -0.487,-1.457 -1.291,-0.683 -2.811,-1.822 -4.149,-3.168 -1.218,-1.228 -2.436,-2.77 -3.142,-4.157 -0.61,-0.296 -1.148,-0.463 -1.568,-0.463 -0.332,0 -0.572,0.102 -0.732,0.31 m -0.709,0.567 c -0.379,0.454 -0.742,0.919 -1.097,1.393 0.128,-0.024 0.263,-0.042 0.409,-0.042 0.306,0 0.642,0.062 0.987,0.168 -0.233,-0.561 -0.338,-1.074 -0.299,-1.519 m 7.649,7.871 c -0.607,-0.764 -1.542,-1.737 -2.948,-2.97 -0.971,-0.842 -2.146,-1.722 -3.237,-2.318 0.644,0.92 1.588,1.929 2.767,2.935 1.009,0.856 2.264,1.727 3.418,2.353 m -9.244,-5.595 c -0.169,0.229 -0.223,0.536 -0.164,0.915 0.073,0.446 0.298,0.947 0.647,1.479 1.503,0.449 3.239,1.528 4.55,2.551 1.002,0.785 2.449,2.059 3.449,3.283 0.489,0.151 0.84,0.193 1.077,0.193 0.318,0 0.554,-0.074 0.673,-0.208 0.106,-0.116 0.153,-0.278 0.139,-0.485 -0.018,-0.254 -0.127,-0.66 -0.506,-1.268 -1.429,-0.641 -3.097,-1.76 -4.361,-2.834 -1.513,-1.287 -2.629,-2.577 -3.279,-3.717 -0.484,-0.198 -0.934,-0.319 -1.318,-0.319 -0.411,0 -0.706,0.134 -0.907,0.41 m -0.669,0.993 -0.024,-0.162 c -0.313,0.486 -0.611,0.978 -0.899,1.477 0.234,-0.085 0.491,-0.131 0.783,-0.131 0.19,0 0.391,0.02 0.601,0.052 -0.242,-0.434 -0.403,-0.849 -0.461,-1.236 m 4.505,4.652 c 1.513,1.088 2.681,1.756 3.573,2.164 -0.785,-0.833 -1.75,-1.704 -2.7,-2.443 -1.018,-0.801 -2.389,-1.681 -3.649,-2.206 0.688,0.811 1.633,1.663 2.776,2.485 m 7.048,2.086 c 0.265,-0.249 0.533,-0.496 0.803,-0.736 -0.314,-0.019 -0.676,-0.103 -1.079,-0.241 0.165,0.352 0.259,0.664 0.276,0.944 l 0,0.033 m 1.989,-1.77 c 0.239,-0.201 0.476,-0.404 0.716,-0.598 l 0.095,-0.076 c -0.312,-0.042 -0.675,-0.147 -1.076,-0.315 0.157,0.371 0.254,0.706 0.265,0.989 m 2.044,-1.645 c 0.288,-0.218 0.574,-0.435 0.869,-0.648 -0.302,-0.057 -0.653,-0.198 -1.059,-0.413 0.13,0.399 0.195,0.758 0.19,1.061 m 3.016,-2.096 c -0.317,-0.089 -0.705,-0.309 -1.124,-0.604 0.136,0.506 0.19,0.906 0.17,1.218 0.313,-0.209 0.631,-0.413 0.954,-0.614 m 1.844,-1.073 c -0.273,-0.108 -0.562,-0.303 -0.865,-0.563 0.053,0.407 0.057,0.764 -10e-4,1.043 0.284,-0.163 0.574,-0.327 0.866,-0.48 m 1.852,-0.892 c -0.151,-0.068 -0.31,-0.174 -0.468,-0.315 -0.021,0.214 -0.056,0.407 -0.108,0.572 0.188,-0.086 0.382,-0.174 0.576,-0.257 m 1.755,-0.642 0.192,-0.056 c -0.174,-0.084 -0.34,-0.224 -0.512,-0.46 -0.05,0.292 -0.116,0.511 -0.189,0.682 0.167,-0.055 0.338,-0.116 0.509,-0.166 m 2.239,-6.419 c 0.123,-1.087 0.153,-2.043 0.102,-2.862 -0.26,0.839 -0.435,1.845 -0.508,2.957 -0.087,1.359 -0.154,2.656 -0.112,3.673 0.172,-0.906 0.334,-2.136 0.518,-3.768 m -0.31,5.989 -0.074,-0.069 c -0.078,-0.082 -0.141,-0.183 -0.202,-0.301 -0.087,0.191 -0.177,0.34 -0.279,0.458 0.186,-0.036 0.37,-0.066 0.555,-0.088 m 1.932,-0.079 c -0.084,-0.124 -0.144,-0.279 -0.182,-0.465 -0.124,0.18 -0.258,0.326 -0.384,0.446 0.186,10e-4 0.376,0.008 0.566,0.019 m 1.574,0.285 c -0.025,-0.13 -0.028,-0.276 -0.011,-0.438 -0.155,0.128 -0.306,0.235 -0.451,0.315 0.155,0.034 0.312,0.076 0.462,0.123 m 1.32,0.556 c 0.003,-0.087 0.02,-0.182 0.052,-0.285 -0.107,0.061 -0.208,0.108 -0.309,0.147 l 0.257,0.138 m 1.089,0.755 0.011,-0.122 0.027,-0.092 -0.244,0.046 0.206,0.168 m 0.839,0.829 0.041,-0.132 0.029,-0.057 -0.062,0.005 -0.188,-0.015 0.18,0.199 m 0.35,0.167 c 0.029,0.081 0.239,0.173 0.726,0.173 l 0.183,-0.007 c 0.396,-0.215 0.986,-0.412 1.77,-0.591 0.435,-0.098 0.925,-0.16 1.354,-0.17 0.682,-0.274 1.182,-0.597 1.069,-0.992 -0.067,-0.236 -0.407,-0.287 -0.681,-0.287 -0.152,0 -0.328,0.017 -0.514,0.049 -0.396,0.239 -0.89,0.468 -1.484,0.697 -0.825,0.314 -1.573,0.587 -2.179,0.708 -0.113,0.086 -0.197,0.177 -0.234,0.263 l -0.01,0.157 m 0.337,0.733 0.037,-0.103 0.082,-0.123 c -0.119,-0.006 -0.217,-0.026 -0.31,-0.049 0.065,0.088 0.13,0.183 0.191,0.275 m 0.329,0.197 c 0.024,0.06 0.145,0.196 0.698,0.2 0.383,-0.186 0.955,-0.33 1.691,-0.428 0.379,-0.053 0.721,-0.079 1.021,-0.079 l 0.251,0.008 c 0.671,-0.222 0.826,-0.434 0.808,-0.598 -0.024,-0.185 -0.383,-0.299 -0.958,-0.299 l -0.037,0 c -0.4,0.165 -0.856,0.309 -1.307,0.454 l -0.046,0.013 c -0.358,0.116 -1.131,0.278 -1.811,0.31 -0.196,0.12 -0.271,0.214 -0.303,0.271 l -0.007,0.148 m 0.178,0.626 0.005,0.009 0.036,-0.062 0.056,-0.078 -0.207,-0.055 0.11,0.186 m 0.299,0.194 c 0.064,0.167 0.29,0.275 0.669,0.33 0.306,-0.081 0.773,-0.155 1.491,-0.201 0.249,-0.013 0.477,-0.021 0.674,-0.021 0.191,0 0.359,0.008 0.505,0.021 0.643,-0.203 0.691,-0.472 0.689,-0.544 -0.005,-0.201 -0.296,-0.334 -0.785,-0.371 -0.425,0.138 -0.926,0.24 -1.4,0.326 -0.43,0.076 -1.06,0.174 -1.577,0.174 -0.13,0.074 -0.211,0.142 -0.251,0.204 l -0.015,0.082 m 0.077,0.661 0.009,-0.011 0.094,-0.105 -0.178,-0.088 0.075,0.204 m 0.11,3.991 0.183,-0.083 -0.135,-0.125 -0.048,0.208 m -0.151,0.545 -0.062,0.19 0.21,-0.038 -0.148,-0.152 m -0.134,0.514 0.012,0.07 c 0.063,0.114 0.285,0.236 0.549,0.342 0.141,0.026 0.295,0.064 0.461,0.116 0.108,0.032 0.207,0.068 0.293,0.106 0.182,0.042 0.386,0.09 0.564,0.09 0.251,0 0.309,-0.091 0.337,-0.161 l -0.012,-0.155 c -0.06,-0.109 -0.227,-0.197 -0.407,-0.264 -0.191,-0.013 -0.343,-0.045 -0.41,-0.066 -0.167,-0.038 -0.384,-0.098 -0.594,-0.176 -0.151,-0.023 -0.288,-0.033 -0.398,-0.033 -0.135,0 -0.364,0.016 -0.395,0.131 m -0.146,0.247 -0.06,0.148 0.18,-0.031 -0.12,-0.117 m -0.152,0.474 c -0.034,0.141 0.158,0.356 0.635,0.569 l 0.244,0.067 c 0.156,0.047 0.284,0.1 0.391,0.152 0.148,0.037 0.281,0.056 0.391,0.056 0.131,0 0.3,-0.027 0.359,-0.149 l -0.007,-0.206 c -0.032,-0.076 -0.129,-0.206 -0.407,-0.339 l -0.117,-0.027 -0.095,-0.022 c -0.061,-0.013 -0.36,-0.086 -0.665,-0.21 -0.122,-0.02 -0.24,-0.034 -0.338,-0.034 -0.222,0 -0.367,0.055 -0.391,0.143 m -0.284,0.472 0.199,-0.025 0.092,0.008 -0.17,-0.213 -0.121,0.23 m -0.087,0.314 0.016,0.15 c 0.052,0.112 0.207,0.254 0.486,0.391 l 0.252,0.07 c 0.116,0.036 0.212,0.078 0.296,0.125 0.185,0.045 0.345,0.073 0.479,0.073 0.264,0 0.355,-0.094 0.381,-0.148 l 0,-0.162 c -0.026,-0.067 -0.101,-0.172 -0.299,-0.279 -0.098,-0.023 -0.202,-0.051 -0.311,-0.087 -0.163,-0.056 -0.306,-0.112 -0.438,-0.172 -0.241,-0.06 -0.435,-0.091 -0.576,-0.091 -0.232,0 -0.264,0.083 -0.286,0.13 m -0.188,0.198 c -0.057,0.101 -0.117,0.198 -0.178,0.301 0.079,-0.032 0.171,-0.052 0.281,-0.052 l 0.079,0.006 -0.167,-0.212 -0.015,-0.043 m -0.243,0.581 -0.007,0.137 c 0.039,0.115 0.183,0.272 0.423,0.413 0.112,0.037 0.223,0.081 0.336,0.135 l 0.147,0.076 c 0.195,0.061 0.361,0.096 0.498,0.096 0.162,0 0.278,-0.048 0.345,-0.134 l 0.018,-0.221 c -0.018,-0.065 -0.091,-0.209 -0.31,-0.342 l -0.084,-0.018 c -0.209,-0.062 -0.397,-0.13 -0.557,-0.211 -0.18,-0.042 -0.337,-0.069 -0.463,-0.069 -0.266,0 -0.327,0.104 -0.346,0.138 m -0.194,0.199 -0.013,-0.056 c -0.061,0.099 -0.127,0.196 -0.194,0.292 l 0.165,-0.02 0.188,0.016 -0.146,-0.232 m -0.351,0.522 -0.001,0.137 c 0.05,0.135 0.222,0.295 0.406,0.419 l 0.229,0.092 c 0.141,0.058 0.256,0.122 0.357,0.188 0.129,0.038 0.254,0.06 0.353,0.06 0.147,0 0.259,-0.038 0.323,-0.113 l 0.047,-0.203 c -0.03,-0.117 -0.131,-0.241 -0.3,-0.346 l -0.209,-0.074 c -0.134,-0.049 -0.26,-0.112 -0.371,-0.179 -0.2,-0.066 -0.381,-0.103 -0.525,-0.103 -0.112,0 -0.255,0.021 -0.309,0.122 m -0.173,0.196 -0.01,-0.037 c -0.067,0.09 -0.133,0.178 -0.201,0.268 l 0.154,-0.024 0.201,0.024 -0.144,-0.231 m -0.317,0.497 -0.015,0.171 c 0.024,0.08 0.089,0.18 0.192,0.274 0.189,0.059 0.364,0.138 0.488,0.215 l 0.16,0.12 c 0.164,0.048 0.314,0.074 0.44,0.074 0.142,0 0.247,-0.032 0.302,-0.091 l 0.064,-0.195 c -0.016,-0.056 -0.057,-0.144 -0.196,-0.25 -0.095,-0.027 -0.189,-0.059 -0.291,-0.101 -0.093,-0.045 -0.233,-0.122 -0.373,-0.22 -0.441,-0.162 -0.654,-0.165 -0.771,0.003 m -0.179,0.22 -0.015,-0.118 c -0.078,0.093 -0.155,0.185 -0.235,0.278 l 0.141,-0.019 0.187,0.021 -0.078,-0.162 m -0.415,0.553 c 0.02,0.098 0.105,0.211 0.229,0.324 0.116,0.045 0.224,0.101 0.325,0.174 l 0.174,0.139 c 0.181,0.078 0.361,0.121 0.513,0.121 0.096,0 0.227,-0.018 0.301,-0.104 l 0.039,-0.154 c -0.016,-0.1 -0.096,-0.222 -0.216,-0.332 l -0.227,-0.077 c -0.185,-0.072 -0.346,-0.172 -0.471,-0.286 -0.129,-0.034 -0.253,-0.059 -0.361,-0.059 -0.127,0 -0.211,0.029 -0.261,0.085 l -0.045,0.169 m -0.154,0.031 -0.008,-0.064 -0.033,0.04 -0.242,0.251 0.206,-0.032 0.175,0.019 -0.098,-0.214 m -0.417,0.593 c 0.011,0.094 0.065,0.19 0.154,0.291 0.091,0.046 0.189,0.102 0.296,0.172 0.121,0.078 0.208,0.155 0.278,0.23 0.147,0.067 0.284,0.107 0.405,0.107 0.12,0 0.216,-0.04 0.278,-0.113 l 0.049,-0.17 c -0.014,-0.11 -0.097,-0.236 -0.221,-0.36 l -0.169,-0.08 c -0.151,-0.081 -0.282,-0.175 -0.383,-0.267 -0.121,-0.039 -0.237,-0.064 -0.347,-0.064 -0.131,0 -0.237,0.037 -0.293,0.092 l -0.047,0.162 m -0.137,-0.09 c -0.284,0.275 -0.574,0.54 -0.869,0.793 l 0.082,-0.004 c 0.091,0.006 0.196,0.024 0.312,0.071 -0.053,-0.098 -0.081,-0.194 -0.081,-0.278 l 0.01,-0.057 c 0.099,-0.091 0.197,-0.186 0.293,-0.283 l 0.079,-0.006 0.217,0.04 -0.052,-0.163 0.009,-0.113 m -1.457,1.278 0.077,-0.012 c 0.096,0 0.204,0.033 0.318,0.087 -0.049,-0.117 -0.075,-0.234 -0.049,-0.332 l 0.003,-0.028 c -0.114,0.096 -0.23,0.19 -0.349,0.285 m -0.599,0.451 0.061,-0.01 c 0.106,0 0.228,0.041 0.359,0.126 -0.042,-0.103 -0.064,-0.201 -0.064,-0.283 l 0.015,-0.079 0.015,-0.039 c -0.129,0.098 -0.26,0.193 -0.386,0.285 m -0.602,0.415 0.059,-0.004 c 0.104,0.003 0.231,0.048 0.355,0.128 -0.041,-0.098 -0.067,-0.193 -0.061,-0.275 l 0.01,-0.061 0.017,-0.046 c -0.125,0.089 -0.251,0.173 -0.38,0.258 m -0.522,0.332 0.056,0.003 c 0.108,0.021 0.232,0.094 0.36,0.192 -0.054,-0.128 -0.089,-0.25 -0.079,-0.344 l 0.027,-0.078 c -0.12,0.078 -0.242,0.152 -0.364,0.227 m -0.449,0.265 0.05,0.009 c 0.082,0.017 0.172,0.07 0.274,0.166 -0.04,-0.111 -0.059,-0.216 -0.045,-0.293 l 0,-0.003 0.017,-0.049 c -0.098,0.057 -0.197,0.115 -0.296,0.17 m 0.462,0.319 0.169,0.216 0.145,0.212 c 0.147,0.144 0.329,0.262 0.463,0.262 l 0.087,-0.022 0.051,-0.082 c 0.022,-0.092 -0.026,-0.236 -0.123,-0.404 l -0.136,-0.152 -0.168,-0.251 c -0.175,-0.17 -0.379,-0.299 -0.501,-0.299 l -0.058,0.013 -0.046,0.085 c -0.015,0.1 0.032,0.256 0.117,0.422 m 0.458,0.904 -0.029,0.067 c 0.119,-0.07 0.232,-0.139 0.348,-0.212 -0.116,0 -0.25,-0.067 -0.377,-0.165 0.055,0.124 0.078,0.229 0.058,0.31 m 0.527,-0.306 -0.018,0.045 c 0.114,-0.071 0.232,-0.144 0.343,-0.219 -0.111,0.018 -0.245,-0.025 -0.381,-0.123 0.045,0.101 0.073,0.209 0.056,0.297 m 0.504,-0.461 c 0.01,-0.104 -0.035,-0.232 -0.121,-0.37 l -0.167,-0.153 -0.184,-0.239 c -0.168,-0.132 -0.335,-0.214 -0.459,-0.214 l -0.106,0.033 -0.044,0.084 c -0.017,0.12 0.063,0.316 0.172,0.495 l 0.143,0.171 0.101,0.153 c 0.153,0.159 0.308,0.253 0.434,0.253 l 0.128,-0.038 0.103,-0.175 m 0.028,0.154 c 0.153,-0.102 0.309,-0.204 0.461,-0.306 l -0.059,0.003 c -0.128,0 -0.267,-0.044 -0.404,-0.122 0.044,0.101 0.064,0.196 0.055,0.281 l -0.053,0.144 m 0.616,-0.576 c 0.011,-0.067 -0.007,-0.173 -0.1,-0.315 l -0.194,-0.157 c -0.08,-0.082 -0.156,-0.179 -0.218,-0.275 -0.213,-0.172 -0.361,-0.214 -0.458,-0.214 l -0.158,0.057 -0.051,0.128 c -0.004,0.113 0.051,0.257 0.154,0.402 l 0.176,0.18 0.121,0.152 c 0.196,0.16 0.386,0.219 0.514,0.219 l 0.119,-0.024 c 0.01,-0.006 0.08,-0.051 0.095,-0.153 m 0.059,0.118 c 0.127,-0.088 0.253,-0.182 0.38,-0.271 l -0.061,0.009 c -0.105,0 -0.214,-0.029 -0.326,-0.082 l 0.041,0.239 -0.034,0.105 m 0.595,-0.602 c 0.005,-0.06 -0.007,-0.147 -0.074,-0.26 -0.092,-0.052 -0.176,-0.112 -0.235,-0.17 -0.084,-0.082 -0.187,-0.201 -0.275,-0.329 -0.15,-0.102 -0.297,-0.155 -0.416,-0.155 l -0.162,0.051 -0.049,0.136 c 0,0.114 0.055,0.274 0.149,0.425 l 0.211,0.201 0.148,0.175 c 0.142,0.1 0.298,0.16 0.427,0.16 l 0.181,-0.054 c 0.031,-0.026 0.092,-0.081 0.095,-0.18 m 0.084,0.114 c 0.109,-0.086 0.222,-0.169 0.33,-0.253 l -0.064,0.009 c -0.09,0 -0.183,-0.024 -0.275,-0.058 l 0.033,0.195 -0.024,0.107 m 0.531,-0.609 c 0.005,-0.067 -0.015,-0.18 -0.106,-0.32 -0.092,-0.051 -0.18,-0.114 -0.269,-0.192 l -0.204,-0.221 c -0.162,-0.097 -0.321,-0.152 -0.443,-0.152 l -0.169,0.059 c -0.106,0.115 -0.022,0.323 0.104,0.509 0.088,0.063 0.181,0.138 0.269,0.228 l 0.182,0.212 c 0.121,0.07 0.255,0.124 0.371,0.124 l 0.182,-0.056 0.083,-0.191 m 0.096,0.123 c 0.127,-0.1 0.254,-0.2 0.377,-0.303 l -0.1,0.01 c -0.095,0 -0.195,-0.027 -0.296,-0.062 0.036,0.096 0.044,0.179 0.043,0.235 l -0.024,0.12 m 0.591,-0.728 c -0.002,-0.072 -0.035,-0.169 -0.119,-0.278 l -0.252,-0.134 c -0.153,-0.095 -0.277,-0.198 -0.37,-0.305 -0.139,-0.068 -0.258,-0.104 -0.355,-0.104 l -0.195,0.075 -0.053,0.139 c 0,0.111 0.068,0.252 0.193,0.407 0.099,0.064 0.196,0.136 0.288,0.224 l 0.135,0.147 c 0.137,0.079 0.283,0.128 0.414,0.128 0.093,0 0.177,-0.021 0.226,-0.065 0.024,-0.02 0.099,-0.097 0.088,-0.234 m 0.116,0.145 c 0.123,-0.104 0.247,-0.214 0.368,-0.325 -0.118,0.026 -0.254,0.018 -0.4,-0.023 l 0.05,0.195 -0.018,0.153 m 0.693,-0.621 c 0.127,-0.116 0.252,-0.232 0.371,-0.348 l -0.153,0.014 c -0.095,0 -0.2,-0.018 -0.309,-0.042 l 0.099,0.252 -0.008,0.124 m 0.715,-0.774 0.005,0.081 c 0.108,-0.113 0.211,-0.223 0.315,-0.334 -0.116,0.028 -0.261,0.032 -0.429,0.003 l 0.109,0.25 m 0.652,-0.716 0.007,0.101 c 0.083,-0.093 0.165,-0.186 0.247,-0.278 -0.093,0.027 -0.203,0.035 -0.322,0.021 l 0.068,0.156 m 0.586,-0.681 0.01,0.095 0.068,-0.078 0.21,-0.265 c -0.113,0.033 -0.244,0.037 -0.401,0.02 l 0.113,0.228 m 0.603,-0.822 0.021,0.131 c 0.094,-0.122 0.186,-0.25 0.277,-0.378 -0.077,0.023 -0.17,0.042 -0.288,0.042 l -0.133,-0.012 0.123,0.217 m 0.583,-0.803 0.028,0.1 c 0.061,-0.093 0.122,-0.192 0.183,-0.283 -0.076,0.026 -0.168,0.044 -0.281,0.044 l -0.017,-0.002 0.087,0.141 m 0.483,-0.806 0.037,0.116 c 0.062,-0.105 0.125,-0.212 0.184,-0.319 -0.068,0.025 -0.155,0.036 -0.258,0.036 l -0.075,-0.002 0.112,0.169 m 0.492,-0.823 0.03,0.067 c 0.062,-0.121 0.125,-0.24 0.184,-0.364 -0.087,0.057 -0.205,0.105 -0.365,0.129 l 0.151,0.168 m 0.37,-0.976 0.077,0.182 0.042,-0.09 0.068,-0.166 -0.201,0.061 0.014,0.013 m -2.464,-0.046 0.013,0.067 c 0.065,0.108 0.284,0.233 0.596,0.345 0.144,0.026 0.296,0.054 0.465,0.097 0.133,0.029 0.275,0.065 0.408,0.114 l 0.184,0.007 c 0.208,0 0.569,-0.033 0.63,-0.265 l -0.034,-0.175 -0.157,-0.134 c -0.225,-0.005 -0.489,-0.038 -0.793,-0.1 -0.287,-0.054 -0.532,-0.113 -0.742,-0.181 -0.444,0.004 -0.537,0.123 -0.57,0.225 m 2.613,-0.595 c -0.065,-0.082 -0.174,-0.143 -0.299,-0.192 -0.226,-0.001 -0.484,-0.026 -0.755,-0.049 -0.177,-0.014 -0.55,-0.058 -0.883,-0.163 -0.29,0.013 -0.461,0.08 -0.485,0.19 l 0.02,0.096 c 0.065,0.097 0.237,0.175 0.437,0.244 0.168,0.003 0.346,0.016 0.508,0.031 0.223,0.02 0.657,0.079 0.983,0.237 l 0.018,0 c 0.183,0 0.493,-0.026 0.514,-0.192 l -0.058,-0.202 m 0.376,-0.659 -0.019,-0.132 c -0.038,-0.061 -0.143,-0.149 -0.407,-0.238 -0.092,0.005 -0.188,0.007 -0.29,0.007 -0.185,0 -0.393,-0.007 -0.605,-0.025 -0.319,-0.032 -0.659,-0.075 -0.947,-0.157 -0.26,0.043 -0.424,0.127 -0.424,0.243 0,0.093 0.165,0.204 0.457,0.293 l 0.046,0 c 0.246,0 0.5,0.03 0.682,0.052 l 0.037,0.003 c 0.21,0.024 0.527,0.062 0.805,0.152 l 0.072,0.003 c 0.471,0 0.567,-0.106 0.593,-0.201 m -0.171,0.498 0.075,0.14 c 0.036,-0.092 0.07,-0.183 0.106,-0.277 l -0.239,0.08 0.058,0.057 m 0.381,-0.778 0.01,0.023 c 0.032,-0.093 0.061,-0.188 0.088,-0.284 -0.073,0.04 -0.158,0.077 -0.262,0.101 l 0.164,0.16 m 0.278,-0.896 c 0.028,-0.119 0.06,-0.239 0.089,-0.357 -0.096,0.06 -0.212,0.107 -0.345,0.14 0.104,0.055 0.184,0.116 0.235,0.186 l 0.021,0.031 m 0.294,-1.387 c -0.086,0.072 -0.191,0.129 -0.321,0.172 0.108,0.051 0.196,0.111 0.259,0.183 0.023,-0.117 0.043,-0.237 0.062,-0.355 m -3.666,-0.279 c 0.015,0.068 0.121,0.199 0.621,0.278 0.448,-0.081 0.942,-0.087 1.09,-0.087 l 0.207,0.005 c 0.226,0.008 0.522,0.029 0.811,0.08 0.559,-0.072 0.829,-0.209 0.848,-0.425 l -0.033,-0.136 c -0.053,-0.059 -0.182,-0.121 -0.471,-0.159 -0.337,0.103 -0.789,0.185 -1.396,0.225 -0.556,0.037 -0.997,0.03 -1.347,-0.013 -0.209,0.067 -0.29,0.132 -0.319,0.171 l -0.011,0.061 m 0.055,0.444 -0.121,-0.068 0.028,0.124 0.093,-0.056 m -0.008,2.37 -0.025,0.162 0.137,-0.067 -0.112,-0.095 m 0.059,-0.767 -0.008,0.157 0.124,-0.072 -0.116,-0.085 m 2.405,-0.513 c -0.142,0.008 -0.287,0.013 -0.421,0.013 -0.126,0 -0.26,-0.005 -0.401,-0.009 -0.327,-0.011 -0.617,-0.042 -0.867,-0.088 -0.428,0.046 -0.621,0.141 -0.623,0.198 -0.007,0.154 0.157,0.273 0.467,0.368 0.109,-0.014 0.226,-0.023 0.357,-0.023 0.166,0 0.349,0.01 0.54,0.031 0.353,0.045 0.646,0.097 0.88,0.164 0.469,-0.031 0.701,-0.141 0.719,-0.249 l -0.036,-0.133 c -0.044,-0.058 -0.187,-0.181 -0.615,-0.272 m -2.436,-0.341 0.013,0.173 0.157,-0.081 -0.17,-0.092 m 0.808,-0.035 c 0.147,-0.012 0.301,-0.018 0.479,-0.018 0.19,0 0.374,0.006 0.543,0.022 0.214,0.018 0.405,0.045 0.573,0.076 0.8,-0.045 0.928,-0.234 0.941,-0.323 l -0.028,-0.083 c -0.086,-0.1 -0.317,-0.187 -0.634,-0.25 -0.282,0.037 -0.607,0.054 -0.965,0.059 -0.499,0.007 -0.896,-0.012 -1.205,-0.057 -0.244,0.05 -0.417,0.109 -0.486,0.183 l -0.015,0.021 c 0.007,0.098 0.225,0.27 0.797,0.37 m 2.896,-1.641 c 0.013,-0.119 0.022,-0.234 0.034,-0.355 -0.07,0.071 -0.152,0.136 -0.261,0.198 l 0.219,0.147 0.008,0.01 z m -10.549,14.447 c -0.127,0 -0.266,-0.09 -0.398,-0.209 0.074,0.16 0.113,0.301 0.08,0.395 0.107,-0.063 0.213,-0.122 0.318,-0.186 m 9.383,-9.668 c -0.682,1.5 -1.577,2.897 -2.625,4.164 -1.967,2.371 -4.448,4.261 -7.123,5.753 l -0.005,0.003 -0.02,0.011 -0.216,0.117 -0.002,-0.032 0.12,-0.067 -0.126,-0.044 -0.003,-0.052 0.145,0.054 0.075,-0.024 c 0.109,-0.066 0.01,-0.313 -0.099,-0.522 l -0.173,-0.21 -0.006,-0.007 -0.016,-0.191 0.075,0.11 0.131,0.227 c 0.172,0.193 0.355,0.322 0.485,0.322 l 0.074,-0.021 0.076,-0.106 c 0.015,-0.069 0,-0.19 -0.116,-0.391 l -0.156,-0.169 c -0.088,-0.106 -0.156,-0.225 -0.212,-0.338 -0.172,-0.195 -0.305,-0.27 -0.414,-0.242 l -0.005,-0.049 -0.008,-0.036 c 1.531,-0.896 2.921,-2.023 4.108,-3.328 1.26,-1.394 2.312,-3.001 2.895,-4.783 0.287,-0.891 0.444,-1.823 0.406,-2.751 -0.037,-0.927 -0.282,-1.843 -0.734,-2.648 -0.462,-0.806 -1.025,-1.565 -1.705,-2.188 -0.682,-0.628 -1.485,-1.113 -2.357,-1.397 -0.877,-0.287 -1.807,-0.374 -2.729,-0.314 -0.923,0.057 -1.835,0.257 -2.723,0.542 -1.773,0.567 -3.439,1.447 -5.022,2.446 -0.46,0.292 -0.913,0.597 -1.359,0.911 -0.177,0.121 -0.348,0.246 -0.519,0.371 -0.905,0.656 -1.789,1.343 -2.643,2.064 -0.086,0.074 -0.171,0.151 -0.264,0.224 l -0.158,0.139 c -1.211,1.042 -2.382,2.136 -3.484,3.281 l -0.377,-0.004 -0.202,-0.363 0.162,-0.159 -0.086,10e-4 c -0.166,0 -0.359,-0.017 -0.588,-0.059 l 0.067,0.1 c -0.268,-0.07 -0.535,-0.139 -0.801,-0.211 l -0.077,-0.102 c -1.047,-0.348 -2.533,-1.098 -4.623,-2.603 -1.469,-1.052 -2.623,-2.17 -3.354,-3.207 -0.352,-0.095 -0.687,-0.152 -0.992,-0.152 -0.515,0 -0.886,0.153 -1.134,0.471 -0.187,0.232 -0.246,0.504 -0.183,0.837 0.04,0.214 0.13,0.443 0.26,0.679 -0.442,-0.254 -0.874,-0.518 -1.299,-0.798 0.677,-1.421 1.486,-2.769 2.376,-4.056 0.94,-1.359 1.982,-2.649 3.109,-3.857 1.637,-1.76 3.455,-3.345 5.415,-4.737 0.114,0.066 0.229,0.131 0.343,0.198 l 0.016,-0.022 c -0.111,-0.067 -0.222,-0.13 -0.331,-0.196 l 0.26,-0.181 c 0.032,0.09 0.067,0.178 0.099,0.267 l 0.148,-0.1 -0.102,-0.267 0.24,-0.162 0.249,0.146 0.059,-0.039 0.021,-0.036 -0.229,-0.139 c 0.231,-0.151 0.463,-0.306 0.705,-0.455 0.109,0.065 0.226,0.129 0.337,0.2 l 0.013,-0.022 c -0.107,-0.067 -0.214,-0.132 -0.324,-0.199 0.255,-0.161 0.505,-0.32 0.766,-0.476 0.707,-0.42 1.432,-0.821 2.168,-1.192 0.735,-0.372 1.484,-0.728 2.259,-1.029 1.535,-0.614 3.147,-1.06 4.786,-1.292 3.277,-0.476 6.711,-0.07 9.719,1.356 1.5,0.708 2.882,1.659 4.077,2.803 1.2,1.143 2.214,2.473 3.022,3.912 1.624,2.893 2.226,6.309 1.807,9.576 -0.209,1.637 -0.667,3.238 -1.349,4.74"
         style="fill:#26b6ac;fill-opacity:1;fill-rule:nonzero;stroke:none"
         id="path214"
         inkscape:connector-curvature="0" /><path
         d="m 410.2478,67.882706 c -0.219,0.932 -0.525,1.85 -0.967,2.706 -0.438,0.858 -1.02,1.655 -1.753,2.291 -0.729,0.641 -1.606,1.106 -2.53,1.379 -0.922,0.278 -1.884,0.374 -2.841,0.355 -0.965,-0.024 -1.921,-0.296 -2.763,-0.756 -0.845,-0.457 -1.585,-1.087 -2.213,-1.803 -1.254,-1.439 -2.101,-3.183 -2.659,-4.988 -0.518,-1.711 -0.773,-3.496 -0.755,-5.279 l 0.031,0.017 c 0.011,1.774 0.291,3.543 0.829,5.227 0.576,1.788 1.439,3.504 2.694,4.9 0.626,0.692 1.355,1.296 2.181,1.727 0.821,0.432 1.737,0.675 2.659,0.687 0.931,0.003 1.868,-0.105 2.752,-0.381 0.876,-0.276 1.699,-0.733 2.386,-1.346 0.682,-0.615 1.227,-1.377 1.634,-2.203 0.409,-0.827 0.697,-1.72 0.893,-2.628 0.204,-0.945 0.319,-1.908 0.378,-2.876 0.012,-0.226 0.026,-0.453 0.029,-0.681 0.018,-0.663 0.011,-1.336 -0.013,-2.003 l -0.001,-0.008 c -0.01,-0.223 -0.02,-0.44 -0.035,-0.656 -0.059,-0.96 -0.154,-1.922 -0.281,-2.875 -0.026,-0.195 -0.054,-0.388 -0.084,-0.582 l -0.022,-0.173 c -0.025,-0.15 -0.046,-0.298 -0.073,-0.447 -0.014,-0.103 -0.032,-0.206 -0.049,-0.307 -0.03,-0.187 -0.058,-0.368 -0.094,-0.557 l -0.04,-0.217 c -0.312,-1.699 -0.697,-3.395 -1.174,-5.049 l 0.229,-0.318 0.374,0.001 c 0.504,1.814 0.89,3.64 1.196,5.487 0.306,1.874 0.51,3.766 0.566,5.67 0.044,1.899 -0.056,3.815 -0.484,5.686"
         style="fill:#127bca;fill-opacity:1;fill-rule:nonzero;stroke:none"
         id="path218"
         inkscape:connector-curvature="0" /><path
         d="m 413.18311,63.632004 c -0.017,0.535 -0.046,1.067 -0.096,1.601 -0.102,1.065 -0.281,2.128 -0.566,3.16 -0.281,1.033 -0.674,2.038 -1.209,2.971 -0.533,0.934 -1.22,1.796 -2.062,2.484 -0.831,0.694 -1.815,1.199 -2.849,1.507 -0.844,0.25 -1.719,0.374 -2.592,0.398 -0.289,0.006 -0.579,0 -0.87,-0.012 -1.169,-0.067 -2.319,-0.418 -3.336,-0.995 -0.252,-0.142 -0.496,-0.298 -0.735,-0.463 -0.714,-0.504 -1.347,-1.112 -1.903,-1.782 -0.858,-1.021 -1.527,-2.18 -2.049,-3.403 -0.261,-0.612 -0.48,-1.242 -0.666,-1.876 -0.528,-1.804 -0.771,-3.68 -0.749,-5.556 l 0.021,0.012 c 0.013,1.974 0.306,3.943 0.915,5.812 0.041,0.127 0.081,0.253 0.126,0.378 0.367,1.04 0.839,2.05 1.425,2.986 0.444,0.711 0.954,1.377 1.535,1.985 0.178,0.189 0.371,0.373 0.564,0.546 0.574,0.516 1.202,0.96 1.89,1.304 0.911,0.465 1.919,0.737 2.936,0.782 0.414,0.013 0.829,0.008 1.238,-0.025 0.611,-0.046 1.222,-0.145 1.808,-0.309 0.468,-0.127 0.926,-0.297 1.361,-0.508 0.475,-0.231 0.929,-0.507 1.346,-0.833 0.445,-0.345 0.844,-0.741 1.202,-1.168 0.286,-0.342 0.549,-0.711 0.782,-1.094 0.528,-0.858 0.925,-1.799 1.221,-2.771 0.208,-0.678 0.366,-1.369 0.483,-2.068 0.186,-1.074 0.278,-2.166 0.296,-3.262 0.008,-0.254 0.008,-0.505 0.008,-0.761 -0.005,-0.292 -0.008,-0.592 -0.021,-0.886 -0.433,-7.539 -2.393,-12.012 -2.393,-12.012 0.191,-0.186 0.381,-0.371 0.574,-0.551 0.723,1.801 2.18,6.618 2.37,12.812 0.013,0.528 0.01,1.061 -0.005,1.597"
         style="fill:#127bca;fill-opacity:1;fill-rule:nonzero;stroke:none"
         id="path222"
         inkscape:connector-curvature="0" /><path
         d="m 414.9687,55.635498 c 0.388,2.055 0.628,4.141 0.674,6.236 0.01,0.59 0.006,1.182 -0.015,1.77 -0.022,0.594 -0.059,1.185 -0.121,1.778 -0.129,1.182 -0.358,2.352 -0.706,3.49 -0.352,1.129 -0.828,2.224 -1.454,3.23 -0.633,1.015 -1.421,1.936 -2.37,2.677 -0.94,0.741 -2.031,1.294 -3.174,1.631 -0.996,0.296 -2.026,0.436 -3.055,0.453 -0.343,0.006 -0.684,-0.009 -1.022,-0.03 -1.377,-0.111 -2.721,-0.545 -3.91,-1.236 -0.295,-0.17 -0.58,-0.355 -0.858,-0.558 -0.836,-0.6 -1.574,-1.326 -2.208,-2.131 -0.878,-1.087 -1.572,-2.308 -2.1,-3.593 -0.265,-0.644 -0.492,-1.305 -0.679,-1.975 -0.529,-1.894 -0.767,-3.873 -0.734,-5.84 l 0.03,0.014 c -0.01,2.169 0.299,4.341 0.978,6.4 0.047,0.134 0.096,0.273 0.143,0.41 0.411,1.137 0.944,2.237 1.6,3.251 0.505,0.767 1.079,1.485 1.731,2.135 0.204,0.202 0.418,0.398 0.637,0.585 0.639,0.545 1.341,1.019 2.091,1.387 1.008,0.499 2.107,0.802 3.222,0.875 0.451,0.029 0.902,0.034 1.354,0.008 0.672,-0.036 1.341,-0.131 1.99,-0.289 0.515,-0.128 1.021,-0.293 1.505,-0.504 0.533,-0.228 1.045,-0.51 1.519,-0.839 0.502,-0.35 0.968,-0.746 1.389,-1.184 0.345,-0.354 0.657,-0.733 0.94,-1.127 0.647,-0.896 1.156,-1.888 1.555,-2.924 0.273,-0.72 0.493,-1.462 0.664,-2.219 0.266,-1.161 0.417,-2.352 0.479,-3.551 0.015,-0.276 0.025,-0.552 0.028,-0.827 0.005,-0.325 0.004,-0.649 0,-0.976 -0.008,-0.604 -0.031,-1.204 -0.076,-1.804 -0.088,-1.343 -0.256,-2.675 -0.495,-3.997 -0.188,-1.053 -0.421,-2.096 -0.698,-3.129 -0.31,-1.162 -0.743,-2.443 -1.098,-3.425 -0.29,-0.81 -0.44,-1.222 -0.654,-1.713 0.129,-0.113 0.259,-0.223 0.386,-0.334 l 0.159,-0.138 c 0.36,0.858 0.594,1.537 0.729,1.959 0.295,0.906 0.854,2.657 1.179,4.012 0.165,0.676 0.313,1.356 0.445,2.042"
         style="fill:#127bca;fill-opacity:1;fill-rule:nonzero;stroke:none"
         id="path226"
         inkscape:connector-curvature="0" /><path
         d="m 418.0764,63.658401 c -0.028,0.648 -0.072,1.299 -0.151,1.948 -0.157,1.295 -0.433,2.575 -0.85,3.812 -0.414,1.232 -0.975,2.415 -1.698,3.498 -0.727,1.091 -1.622,2.077 -2.676,2.872 -1.048,0.793 -2.243,1.388 -3.501,1.756 -1.139,0.335 -2.33,0.497 -3.515,0.502 -0.391,0.003 -0.782,-0.015 -1.176,-0.052 -1.577,-0.149 -3.117,-0.666 -4.48,-1.47 -0.341,-0.198 -0.668,-0.418 -0.985,-0.648 -0.951,-0.702 -1.796,-1.549 -2.513,-2.486 -0.901,-1.148 -1.607,-2.433 -2.147,-3.782 -0.271,-0.678 -0.502,-1.369 -0.69,-2.071 -0.537,-1.996 -0.762,-4.069 -0.726,-6.127 l 0.031,0.014 c -0.019,2.367 0.305,4.744 1.057,6.983 0.048,0.153 0.101,0.294 0.156,0.443 0.454,1.24 1.046,2.431 1.78,3.519 0.561,0.828 1.202,1.598 1.925,2.283 0.227,0.218 0.461,0.427 0.705,0.623 0.706,0.578 1.477,1.081 2.302,1.475 1.096,0.527 2.286,0.868 3.498,0.971 0.488,0.039 0.98,0.053 1.47,0.034 0.733,-0.027 1.461,-0.115 2.175,-0.268 0.563,-0.123 1.114,-0.287 1.654,-0.496 0.587,-0.228 1.154,-0.515 1.686,-0.847 0.566,-0.348 1.095,-0.752 1.58,-1.204 0.392,-0.362 0.76,-0.749 1.095,-1.159 0.762,-0.929 1.385,-1.971 1.881,-3.07 0.342,-0.767 0.628,-1.561 0.85,-2.374 0.348,-1.25 0.563,-2.538 0.664,-3.838 0.023,-0.302 0.041,-0.599 0.054,-0.901 0.01,-0.351 0.018,-0.707 0.021,-1.059 0.002,-0.657 -0.018,-1.309 -0.05,-1.965 -0.363,-7.068 -3.063,-12.715 -3.678,-13.948 0.18,-0.149 0.366,-0.289 0.551,-0.435 0.636,1.313 3.465,7.174 3.724,15.516 0.021,0.651 0.006,1.302 -0.023,1.951"
         style="fill:#127bca;fill-opacity:1;fill-rule:nonzero;stroke:none"
         id="path230"
         inkscape:connector-curvature="0" /><path
         d="m 420.52409,63.671905 c -0.035,0.706 -0.088,1.416 -0.182,2.121 -0.181,1.411 -0.508,2.801 -0.992,4.14 -0.477,1.326 -1.124,2.602 -1.938,3.757 -0.824,1.169 -1.826,2.219 -2.99,3.068 -1.151,0.842 -2.453,1.478 -3.819,1.88 -1.289,0.38 -2.637,0.558 -3.978,0.558 -0.441,-0.005 -0.888,-0.03 -1.331,-0.076 -1.784,-0.19 -3.519,-0.791 -5.054,-1.706 -0.384,-0.231 -0.752,-0.476 -1.105,-0.741 -1.074,-0.805 -2.023,-1.768 -2.819,-2.838 -0.919,-1.211 -1.647,-2.559 -2.196,-3.97 -0.275,-0.714 -0.509,-1.436 -0.704,-2.172 -0.539,-2.09 -0.753,-4.26 -0.713,-6.414 l 0.031,0.015 c -0.028,2.567 0.306,5.144 1.133,7.572 0.056,0.161 0.112,0.322 0.171,0.484 0.495,1.332 1.146,2.608 1.959,3.777 0.614,0.885 1.323,1.704 2.116,2.437 0.252,0.229 0.512,0.446 0.777,0.659 0.772,0.613 1.613,1.14 2.502,1.56 1.194,0.559 2.478,0.926 3.782,1.062 0.531,0.055 1.06,0.078 1.592,0.065 0.79,-0.015 1.576,-0.095 2.352,-0.248 0.609,-0.119 1.213,-0.282 1.8,-0.493 0.643,-0.227 1.267,-0.51 1.861,-0.845 0.625,-0.357 1.218,-0.769 1.769,-1.227 0.447,-0.369 0.864,-0.77 1.253,-1.196 0.877,-0.961 1.611,-2.05 2.206,-3.216 0.416,-0.813 0.761,-1.658 1.039,-2.527 0.428,-1.338 0.703,-2.723 0.845,-4.125 0.031,-0.324 0.059,-0.647 0.076,-0.972 0.021,-0.381 0.032,-0.762 0.045,-1.145 0.012,-0.705 -0.005,-1.416 -0.024,-2.124 -0.205,-7.456 -3.455,-13.894 -4.486,-15.445 l 0.02,-0.011 c 0.17,-0.127 0.342,-0.252 0.518,-0.375 3.964,6.357 4.474,14.298 4.513,16.583 0.013,0.71 0.002,1.418 -0.029,2.128"
         style="fill:#127bca;fill-opacity:1;fill-rule:nonzero;stroke:none"
         id="path234"
         inkscape:connector-curvature="0" /><path
         d="m 421.5775,51.993607 c 0.224,0.76 0.42,1.531 0.594,2.304 0.515,2.326 0.801,4.702 0.842,7.086 0.013,0.766 0,1.533 -0.041,2.301 -0.043,0.764 -0.103,1.531 -0.211,2.296 -0.209,1.522 -0.582,3.027 -1.135,4.464 -0.541,1.43 -1.274,2.791 -2.18,4.02 -0.924,1.25 -2.028,2.363 -3.302,3.261 -1.254,0.893 -2.662,1.573 -4.142,2.006 -1.439,0.428 -2.94,0.619 -4.435,0.609 -0.496,-0.003 -0.993,-0.034 -1.487,-0.092 -1.99,-0.235 -3.92,-0.915 -5.628,-1.95 -0.423,-0.256 -0.835,-0.534 -1.231,-0.831 -1.193,-0.9 -2.246,-1.984 -3.125,-3.188 -0.937,-1.273 -1.686,-2.685 -2.242,-4.163 -0.282,-0.742 -0.518,-1.499 -0.711,-2.269 -0.548,-2.181 -0.756,-4.451 -0.705,-6.7 l 0.028,0.014 c -0.038,2.765 0.312,5.55 1.212,8.163 0.06,0.172 0.12,0.344 0.185,0.515 0.537,1.43 1.246,2.799 2.135,4.042 0.675,0.945 1.449,1.818 2.314,2.588 0.274,0.242 0.555,0.473 0.842,0.697 0.84,0.646 1.755,1.2 2.717,1.643 1.282,0.595 2.657,0.992 4.056,1.158 0.565,0.069 1.138,0.104 1.708,0.098 0.851,-0.006 1.699,-0.08 2.532,-0.229 0.662,-0.114 1.313,-0.278 1.95,-0.485 0.702,-0.229 1.38,-0.517 2.031,-0.854 0.688,-0.358 1.345,-0.775 1.964,-1.248 0.495,-0.374 0.964,-0.787 1.406,-1.228 0.994,-0.996 1.842,-2.134 2.536,-3.36 0.485,-0.856 0.89,-1.759 1.22,-2.684 0.512,-1.42 0.848,-2.908 1.028,-4.412 0.042,-0.345 0.074,-0.692 0.101,-1.042 0.031,-0.409 0.05,-0.818 0.067,-1.23 0.025,-0.76 0.028,-1.521 10e-4,-2.283 -0.053,-1.692 -0.235,-3.382 -0.539,-5.048 -0.241,-1.328 -0.561,-2.643 -0.955,-3.927 -0.445,-1.457 -0.987,-2.879 -1.62,-4.255 -0.556,-1.151 -1.362,-2.554 -2.111,-3.628 l 0.151,-0.101 c 0.143,-0.089 0.289,-0.177 0.435,-0.268 0.785,1.127 1.528,2.509 2.108,3.737 0.642,1.453 1.189,2.947 1.637,4.473"
         style="fill:#127bca;fill-opacity:1;fill-rule:nonzero;stroke:none"
         id="path238"
         inkscape:connector-curvature="0" /><path
         d="m 425.4174,63.695999 c -0.047,0.824 -0.114,1.648 -0.234,2.47 -0.241,1.64 -0.661,3.252 -1.277,4.79 -1.228,3.077 -3.296,5.851 -6.033,7.739 -1.363,0.946 -2.88,1.667 -4.468,2.133 -1.591,0.466 -3.25,0.679 -4.901,0.662 -3.312,-0.046 -6.571,-1.231 -9.192,-3.228 -1.317,-0.997 -2.471,-2.198 -3.43,-3.539 -0.962,-1.336 -1.725,-2.813 -2.294,-4.351 -1.107,-2.988 -1.491,-6.2 -1.414,-9.368 l 0.025,0.014 c -0.047,3.164 0.367,6.356 1.49,9.316 0.577,1.527 1.347,2.984 2.311,4.304 0.964,1.318 2.116,2.499 3.421,3.472 2.605,1.957 5.832,3.093 9.086,3.111 1.627,0.004 3.255,-0.218 4.808,-0.689 1.554,-0.471 3.032,-1.189 4.359,-2.124 2.657,-1.867 4.655,-4.594 5.829,-7.61 0.593,-1.509 0.991,-3.092 1.212,-4.699 0.113,-0.804 0.174,-1.613 0.215,-2.427 0.033,-0.815 0.046,-1.631 0.025,-2.443 -0.073,-3.254 -0.645,-6.485 -1.594,-9.593 -1.151,-3.757 -3.271,-7.344 -4.188,-8.625 0.2,-0.107 0.401,-0.211 0.603,-0.314 0.895,1.295 2.697,4.157 4.151,8.762 0.737,2.345 1.133,5.047 1.336,7.012 l 0.003,0.038 0.003,0.035 0,0.014 c 0.024,0.209 0.043,0.413 0.061,0.61 l 0.018,0.189 c 0.022,0.257 0.04,0.494 0.054,0.705 l 0.007,0.056 0.004,0.111 0.002,0.032 c 0.037,0.547 0.051,0.894 0.054,0.959 0.013,0.823 -0.007,1.652 -0.052,2.476"
         style="fill:#127bca;fill-opacity:1;fill-rule:nonzero;stroke:none"
         id="path242"
         inkscape:connector-curvature="0" /></g></g></svg>