<?xml version="1.0" encoding="UTF-8" standalone="no"?>
<!-- Created with Inkscape (http://www.inkscape.org/) -->

<svg
   xmlns:dc="http://purl.org/dc/elements/1.1/"
   xmlns:cc="http://creativecommons.org/ns#"
   xmlns:rdf="http://www.w3.org/1999/02/22-rdf-syntax-ns#"
   xmlns:svg="http://www.w3.org/2000/svg"
   xmlns="http://www.w3.org/2000/svg"
   version="1.1"
   width="177.40875"
   height="83.919128"
   id="svg3422">
  <defs
     id="defs3424" />
  <metadata
     id="metadata3427">
    <rdf:RDF>
      <cc:Work
         rdf:about="">
        <dc:format>image/svg+xml</dc:format>
        <dc:type
           rdf:resource="http://purl.org/dc/dcmitype/StillImage" />
        <dc:title></dc:title>
      </cc:Work>
    </rdf:RDF>
  </metadata>
  <g
     transform="translate(-488.43848,-664.68833)"
     id="layer1">
    <g
       transform="matrix(1.25,0,0,-1.25,545.0516,740.36071)"
       id="g3212">
      <path
         d="m 0,0 c 0.521,-0.112 1.21,-0.186 1.77,-0.186 1.212,0 2.051,1.323 2.051,2.666 0,1.527 -0.951,2.795 -2.554,2.795 C 0.838,5.275 0.409,5.219 0,5.107 L 0,0 z m 0,-3.951 c 0,-1.565 0,-2.031 1.751,-2.031 l 0,-0.335 -5.256,0 0,0.335 c 1.753,0 1.753,0.466 1.753,2.031 l 0,7.604 c 0,1.566 0,2.033 -1.753,2.033 l 0,0.335 5.033,0 c 2.907,0 4.38,-1.622 4.38,-3.448 0,-0.97 -0.541,-3.391 -3.84,-3.391 -0.689,0 -1.379,0.129 -2.068,0.279 l 0,-3.412 z"
         id="path3214"
         style="fill:#062849;fill-opacity:1;fill-rule:nonzero;stroke:none" />
    </g>
    <g
       transform="matrix(1.25,0,0,-1.25,560.47574,736.02758)"
       id="g3216">
      <path
         d="m 0,0 -2.142,-4.975 4.249,0 L 0,0 z m -2.423,-5.647 -0.745,-1.731 c -0.149,-0.318 -0.409,-0.896 -0.409,-1.25 0,-0.69 0.745,-0.765 1.435,-0.821 l 0,-0.335 -3.878,0 0,0.335 c 0.97,0.094 1.362,0.579 1.92,1.883 l 4.436,10.399 0.336,0 4.194,-10.063 c 0.465,-1.118 0.819,-2.163 2.198,-2.219 l 0,-0.335 -4.864,0 0,0.335 c 0.801,0.037 1.266,0.187 1.266,0.839 0,0.41 -0.297,1.044 -0.446,1.416 l -0.671,1.547 -4.772,0 z"
         id="path3218"
         style="fill:#062849;fill-opacity:1;fill-rule:nonzero;stroke:none" />
    </g>
    <g
       transform="matrix(1.25,0,0,-1.25,576.69085,740.31346)"
       id="g3220">
      <path
         d="m 0,0 0.41,0 c 1.77,0 3.634,0.634 3.634,2.702 0,1.491 -1.006,2.61 -2.515,2.61 C 1.006,5.312 0.503,5.219 0,5.144 L 0,0 z m 5.461,-6.355 -4.193,5.759 -1.268,0 0,-3.392 c 0,-1.566 0,-2.031 1.752,-2.031 l 0,-0.336 -5.255,0 0,0.336 c 1.751,0 1.751,0.465 1.751,2.031 l 0,7.604 c 0,1.566 0,2.031 -1.751,2.031 l 0,0.337 5.348,0 c 3.635,0 4.287,-2.125 4.287,-3.207 0,-1.789 -1.434,-2.795 -3.057,-3.13 L 5.48,-3.708 c 0.913,-1.268 1.584,-2.181 3.281,-2.311 l 0,-0.336 -3.3,0 z"
         id="path3222"
         style="fill:#062849;fill-opacity:1;fill-rule:nonzero;stroke:none" />
    </g>
    <g
       transform="matrix(1.25,0,0,-1.25,594.69835,745.29896)"
       id="g3224">
      <path
         d="m 0,0 c 0,-1.566 0,-2.032 1.752,-2.032 l 0,-0.334 -5.256,0 0,0.334 c 1.753,0 1.753,0.466 1.753,2.032 l 0,7.604 c 0,1.565 0,2.032 -1.753,2.032 l 0,0.336 5.256,0 0,-0.336 C 0,9.636 0,9.169 0,7.604 L 0,0 z"
         id="path3226"
         style="fill:#062849;fill-opacity:1;fill-rule:nonzero;stroke:none" />
    </g>
    <g
       transform="matrix(1.25,0,0,-1.25,610.54184,737.81996)"
       id="g3228">
      <path
         d="m 0,0 -0.335,0 c -0.132,1.956 -1.398,3.541 -3.45,3.541 -1.061,0 -2.142,-0.801 -2.142,-1.92 0,-2.591 6.746,-3.038 6.746,-6.69 0,-1.938 -1.528,-3.561 -3.895,-3.561 -0.857,0 -1.472,0.168 -1.957,0.355 -0.503,0.167 -0.875,0.335 -1.322,0.335 -0.429,0 -0.523,-0.316 -0.559,-0.69 l -0.337,0 0,4.23 0.337,0 c 0.278,-2.981 2.552,-3.503 3.652,-3.503 1.248,0 2.46,0.653 2.46,2.014 0,2.832 -6.561,3.168 -6.561,6.858 0,1.901 1.715,3.299 3.653,3.299 0.672,0 1.23,-0.167 1.677,-0.354 0.466,-0.168 0.822,-0.355 1.063,-0.355 0.448,0 0.559,0.336 0.635,0.709 L 0,4.268 0,0 z"
         id="path3230"
         style="fill:#062849;fill-opacity:1;fill-rule:nonzero;stroke:none" />
    </g>
    <g
       transform="matrix(1.25,0,0,-1.25,522.96348,668.59921)"
       id="g3232">
      <path
         d="m 0,0 -16.689,0 c -1.27,0 -2.149,-0.386 -2.149,-1.948 l 0,-12.594 13.478,0 2.039,-5.455 -15.517,0 0,-12.986 c 0,-1.952 1.173,-2.928 3.318,-2.928 l 16.69,0 0,-3.12 -22.056,0 c -4.197,0 -6.734,1.951 -6.734,7.415 l 0,26.058 c 0,4.195 0.585,8.686 7.614,8.686 L 0,3.128 0,0 z"
         id="path3234"
         style="fill:#062849;fill-opacity:1;fill-rule:nonzero;stroke:none" />
    </g>
    <g
       transform="matrix(1.25,0,0,-1.25,664.38348,668.59921)"
       id="g3236">
      <path
         d="m 0,0 -16.689,0 c -1.27,0 -2.149,-0.386 -2.149,-1.948 l 0,-12.594 13.478,0 2.039,-5.455 -15.517,0 0,-12.986 c 0,-1.952 1.173,-2.928 3.318,-2.928 l 16.691,0 0,-3.12 -22.057,0 c -4.198,0 -6.734,1.951 -6.734,6.735 l 0,26.058 c 0,4.875 0.585,9.366 7.614,9.366 L 0,3.128 0,0 z"
         id="path3238"
         style="fill:#062849;fill-opacity:1;fill-rule:nonzero;stroke:none" />
    </g>
    <g
       transform="matrix(1.25,0,0,-1.25,530.01734,712.63083)"
       id="g3240">
      <path
         d="m 0,0 c 2.83,-0.395 5.858,-0.686 8.589,-0.686 4.296,0 9.174,1.172 9.174,6.443 0,8.879 -18.834,8.685 -18.834,20.59 0,9.467 8.296,12.007 14.541,12.007 3.901,0 7.22,-0.394 9.561,-0.683 l 0,-2.929 c -1.85,0.194 -3.51,0.483 -5.463,0.483 -4.391,0 -10.443,0.197 -10.443,-5.853 0,-8.002 19.422,-7.609 19.422,-21.275 0,-8.292 -6.734,-11.904 -14.541,-11.904 -4.394,0 -8.099,0.096 -12.006,1.071 L 0,0 z"
         id="path3242"
         style="fill:#062849;fill-opacity:1;fill-rule:nonzero;stroke:none" />
    </g>
    <g
       transform="matrix(1.25,0,0,-1.25,570.03946,665.45233)"
       id="g3244">
      <path
         d="m 0,0 0,-41.548 8.78,0 0,35.429 L 0,0 z"
         id="path3246"
         style="fill:#062849;fill-opacity:1;fill-rule:nonzero;stroke:none" />
    </g>
    <g
       transform="matrix(1.25,0,0,-1.25,604.80447,713.48784)"
       id="g3248">
      <path
         d="m 0,0 c -2.145,0 -3.317,0.976 -3.317,2.927 l 0,12.987 15.418,0 -2.039,5.455 -13.379,0 0,12.594 c 0,1.562 0.879,1.949 2.149,1.949 l 16.688,0 0,3.127 -20.006,0 c -7.029,0 -7.613,-4.492 -7.613,-8.686 l 0,-6.902 6.45,-4.394 -6.45,-4.197 0,-10.565 c 0,-5.464 2.537,-7.415 6.732,-7.415 l 20.798,0 0,3.12 L 0,0 z"
         id="path3250"
         style="fill:#062849;fill-opacity:1;fill-rule:nonzero;stroke:none" />
    </g>
    <path
       d="m 539.29435,726.91483 74.19625,0 0,-0.51 -74.19625,0 0,0.51 z"
       id="path3252"
       style="fill:#062849;fill-opacity:1;fill-rule:nonzero;stroke:none" />
  </g>
</svg>
